HIERARCHY
ROOT Hips
{
	OFFSET 0.000000 0.000000 0.000000
	CHANNELS 6 Xposition Yposition Zposition Zrotation Yrotation Xrotation 
	JOINT LeftUpLeg_virtual
	{
		OFFSET 0.000000 0.000000 0.000000
		CHANNELS 3 Zrotation Yrotation Xrotation
		JOINT LeftUpLeg
		{
			OFFSET 10.205400 -3.823500 0.155100
			CHANNELS 3 Zrotation Yrotation Xrotation
			JOINT LeftLeg
			{
				OFFSET 0.708757 -12.982077 0.567790
				CHANNELS 3 Zrotation Yrotation Xrotation
				JOINT LeftFoot
				{
					OFFSET -0.708756 -10.717838 -2.184338
					CHANNELS 3 Zrotation Yrotation Xrotation
					JOINT LeftToeBase
					{
						OFFSET 0.108149 -7.191104 7.560241
						CHANNELS 3 Zrotation Yrotation Xrotation
						End Site
						{
							OFFSET 0.000000 0.000000 0.000000
						}
					}
				}
			}
		}
	}
	JOINT RightUpLeg_virtual
	{
		OFFSET 0.000000 0.000000 0.000000
		CHANNELS 3 Zrotation Yrotation Xrotation
		JOINT RightUpLeg
		{
			OFFSET -10.205400 -3.823500 0.005500
			CHANNELS 3 Zrotation Yrotation Xrotation
			JOINT RightLeg
			{
				OFFSET -0.708756 -12.982134 0.610632
				CHANNELS 3 Zrotation Yrotation Xrotation
				JOINT RightFoot
				{
					OFFSET 0.708754 -10.717769 -1.945823
					CHANNELS 3 Zrotation Yrotation Xrotation
					JOINT RightToeBase
					{
						OFFSET -0.108140 -7.191069 7.372968
						CHANNELS 3 Zrotation Yrotation Xrotation
						End Site
						{
							OFFSET 0.000000 0.000000 0.000000
						}
					}
				}
			}
		}
	}
	JOINT Spine_virtual
	{
		OFFSET 0.000000 0.000000 0.000000
		CHANNELS 3 Zrotation Yrotation Xrotation
		JOINT Spine
		{
			OFFSET 0.000000 6.876099 0.125700
			CHANNELS 3 Zrotation Yrotation Xrotation
			JOINT Spine1
			{
				OFFSET 0.000000 8.022060 0.146608
				CHANNELS 3 Zrotation Yrotation Xrotation
				JOINT Spine2
				{
					OFFSET 0.000000 9.168068 0.167552
					CHANNELS 3 Zrotation Yrotation Xrotation
					JOINT Neck_virtual
					{
						OFFSET 0.000000 0.000000 0.000000
						CHANNELS 3 Zrotation Yrotation Xrotation
						JOINT Neck
						{
							OFFSET 0.000000 10.314075 0.188496
							CHANNELS 3 Zrotation Yrotation Xrotation
							JOINT Head
							{
								OFFSET 0.000000 7.643700 -2.377400
								CHANNELS 3 Zrotation Yrotation Xrotation
								End Site
								{
									OFFSET 0.000000 0.000000 0.000000
								}
							}
						}
					}
					JOINT LeftShoulder_virtual
					{
						OFFSET 0.000000 0.000000 0.000000
						CHANNELS 3 Zrotation Yrotation Xrotation
						JOINT LeftShoulder
						{
							OFFSET 4.392200 8.824978 0.174984
							CHANNELS 3 Zrotation Yrotation Xrotation
							JOINT LeftArm
							{
								OFFSET 8.771219 -2.981674 -0.026999
								CHANNELS 3 Zrotation Yrotation Xrotation
								JOINT LeftForeArm
								{
									OFFSET 8.512804 0.000000 -0.000000
									CHANNELS 3 Zrotation Yrotation Xrotation
									JOINT LeftHand
									{
										OFFSET 18.484802 0.000000 -0.000000
										CHANNELS 3 Zrotation Yrotation Xrotation
										End Site
										{
											OFFSET 0.000000 0.000000 0.000000
										}
									}
								}
							}
						}
					}
					JOINT RightShoulder_virtual
					{
						OFFSET 0.000000 0.000000 0.000000
						CHANNELS 3 Zrotation Yrotation Xrotation
						JOINT RightShoulder
						{
							OFFSET -4.392200 8.824993 0.141379
							CHANNELS 3 Zrotation Yrotation Xrotation
							JOINT RightArm
							{
								OFFSET -8.771282 -2.981682 -0.094208
								CHANNELS 3 Zrotation Yrotation Xrotation
								JOINT RightForeArm
								{
									OFFSET -8.494598 0.000000 0.000000
									CHANNELS 3 Zrotation Yrotation Xrotation
									JOINT RightHand
									{
										OFFSET -18.483803 0.000000 0.000001
										CHANNELS 3 Zrotation Yrotation Xrotation
										End Site
										{
											OFFSET 0.000000 0.000000 0.000000
										}
									}
								}
							}
						}
					}
				}
			}
		}
	}
}
MOTION
Frames: 10
Frame Time: 0.033333
-3.609624 36.143768 -16.910969 179.911281 -4.505745 -179.793091 -0.853325 -1.478496 15.538257 -2.436187 -4.634243 -14.843490 5.072533 4.181729 14.379582 0.581913 -1.565737 3.639637 0.000000 0.000000 0.000000 5.109541 -0.139122 16.384195 -3.833074 2.560900 -16.959641 -4.785794 3.472254 19.468305 10.554226 -1.888066 2.508732 0.000000 0.000000 0.000000 1.504728 1.805680 2.459290 0.715311 -1.895608 -14.469860 -0.493560 -2.778753 6.943011 0.024476 -0.007314 0.024680 -0.934972 -0.384475 8.787600 -1.621303 2.742885 21.235663 0.000000 0.000000 0.000000 0.981313 0.285479 5.683751 -16.992855 -7.530436 2.922031 -41.753848 10.632208 22.495710 1.647459 -39.070991 2.660354 0.000000 0.000000 0.000000 -3.477026 1.340085 5.126215 26.628329 3.220994 5.744806 46.966484 -19.386006 11.491725 -3.083954 34.255680 -2.505493 0.000000 0.000000 0.000000 
-3.608621 36.144482 -16.949638 179.889493 -4.475263 -179.746482 -0.954302 -1.517838 15.493618 -2.432612 -4.378997 -14.803255 5.183340 4.422066 14.643188 0.824280 -1.381239 3.322030 0.000000 0.000000 0.000000 5.212614 -0.440489 16.442007 -3.710454 2.177727 -16.738377 -4.962294 2.857558 19.579118 9.930893 -2.418147 2.369805 0.000000 0.000000 0.000000 1.506687 1.789013 2.387131 0.703347 -1.809068 -14.488897 -0.491882 -2.730607 6.917340 0.012835 0.050142 0.078625 -0.900479 -0.426112 8.726087 -1.630068 2.760841 21.241641 0.000000 0.000000 0.000000 1.004634 0.200920 5.655477 -17.016416 -7.545617 2.962949 -41.877078 10.734343 22.168863 1.674975 -39.109848 2.597536 0.000000 0.000000 0.000000 -3.434029 1.314340 5.040523 26.643427 3.135561 5.758040 47.064873 -19.298491 11.388845 -3.084404 34.414858 -2.537521 0.000000 0.000000 0.000000 
-3.611606 36.145935 -16.994190 179.914723 -4.511144 -179.731032 -0.949907 -1.583009 15.453178 -2.425909 -4.366176 -14.749290 5.174730 4.365882 14.683670 0.910267 -1.399019 3.259451 0.000000 0.000000 0.000000 5.302987 -0.446945 16.403970 -3.874772 2.173985 -16.621764 -4.778454 2.796229 19.641191 9.813276 -2.466650 2.369605 0.000000 0.000000 0.000000 1.545578 1.620139 2.270223 0.725415 -1.776156 -14.517905 -0.455416 -2.746194 6.928836 0.026284 0.056346 0.077614 -0.930220 -0.390937 8.719406 -1.660178 2.777135 21.298818 0.000000 0.000000 0.000000 0.990474 0.344773 5.674666 -17.110399 -7.407291 2.905357 -42.119775 10.959229 21.995373 1.735193 -39.407644 2.523565 0.000000 0.000000 0.000000 -3.451601 1.437515 5.039042 26.609621 3.121723 5.651955 47.252417 -19.314182 11.300803 -3.031064 34.622386 -2.588654 0.000000 0.000000 0.000000 
-3.610272 36.143120 -17.039476 179.880736 -4.583868 -179.646775 -0.957303 -1.507465 15.405715 -2.407240 -4.470025 -14.724657 5.144630 4.340600 14.687340 0.957361 -1.477591 3.281832 0.000000 0.000000 0.000000 5.205650 -0.342128 16.386894 -3.742501 2.238403 -16.574224 -4.822572 2.773912 19.668143 9.742127 -2.430930 2.461921 0.000000 0.000000 0.000000 1.530429 1.801981 2.036069 0.714619 -1.828067 -14.505778 -0.440229 -2.822412 6.967962 -0.000430 -0.005621 0.013905 -0.847229 -0.468815 8.843486 -1.670199 2.807246 21.431156 0.000000 0.000000 0.000000 1.064073 0.264642 5.722457 -17.244182 -7.275946 2.946091 -42.518276 11.325544 21.741354 1.729871 -40.070661 2.507430 0.000000 0.000000 0.000000 -3.389720 1.331404 5.127622 26.536951 3.250831 5.709488 47.567753 -19.178218 11.150916 -3.006449 34.861320 -2.654513 0.000000 0.000000 0.000000 
-3.609246 36.141388 -17.075380 179.895599 -4.685541 -179.620574 -0.899397 -1.385598 15.389794 -2.380021 -4.531434 -14.733073 5.110457 4.254236 14.643369 0.984060 -1.570906 3.321770 0.000000 0.000000 0.000000 5.294275 -0.240699 16.442429 -3.857872 2.224673 -16.561887 -4.644970 2.629426 19.797549 9.559897 -2.487197 2.459879 0.000000 0.000000 0.000000 1.555819 1.809023 1.991308 0.733781 -1.789134 -14.673024 -0.373099 -2.796604 7.035537 0.026552 0.050965 0.029783 -0.831759 -0.473839 8.839726 -1.695906 2.831116 21.502105 0.000000 0.000000 0.000000 1.063094 0.220924 5.727481 -17.424721 -7.241059 2.926009 -42.903847 11.546859 21.916048 1.742082 -40.976692 2.544733 0.000000 0.000000 0.000000 -3.384500 1.258820 5.155572 26.495202 3.254339 5.712226 47.884035 -19.183063 11.132406 -2.940795 35.107333 -2.709424 0.000000 0.000000 0.000000 
-3.605248 36.140625 -17.100449 179.850656 -4.762997 -179.618976 -0.901636 -1.292422 15.423086 -2.341268 -4.637625 -14.755548 5.096651 4.252981 14.616933 0.987882 -1.653173 3.354555 0.000000 0.000000 0.000000 5.266182 -0.180226 16.527695 -3.884128 2.255468 -16.594995 -4.543101 2.567627 19.897731 9.372421 -2.484148 2.493345 0.000000 0.000000 0.000000 1.545218 1.991461 1.979165 0.720703 -1.931815 -14.764606 -0.359757 -2.878835 7.007339 -0.006153 -0.024746 0.030558 -0.763344 -0.528789 8.884657 -1.723233 2.836246 21.578241 0.000000 0.000000 0.000000 1.149622 0.259446 5.798706 -17.596169 -7.166739 2.936205 -43.255158 11.712220 22.601567 1.653425 -42.071575 2.657591 0.000000 0.000000 0.000000 -3.282048 1.390739 5.242428 26.432725 3.248385 5.641886 48.125998 -19.266743 11.384193 -2.940653 35.366098 -2.837512 0.000000 0.000000 0.000000 
-3.598914 36.144703 -17.114052 179.857486 -4.832125 -179.615110 -0.894119 -1.299117 15.447422 -2.315510 -4.648024 -14.782273 5.092063 4.205034 14.618480 0.988328 -1.692026 3.373181 0.000000 0.000000 0.000000 5.306896 -0.207955 16.571683 -3.961172 2.259084 -16.678419 -4.436171 2.500816 19.984982 9.227568 -2.424964 2.533428 0.000000 0.000000 0.000000 1.576284 1.943042 1.929125 0.696994 -1.825419 -14.852690 -0.307961 -2.745932 7.047808 -0.001027 0.049542 0.043084 -0.693339 -0.572409 8.942047 -1.737992 2.821314 21.727747 0.000000 0.000000 0.000000 1.200158 0.098134 5.869306 -17.768361 -7.410503 3.073134 -43.476172 11.644543 23.657958 1.634760 -43.324061 2.764825 0.000000 0.000000 0.000000 -3.211294 1.169383 5.255489 26.348956 3.175837 5.601783 48.291869 -19.320039 11.305499 -2.781835 35.588728 -2.800286 0.000000 0.000000 0.000000 
-3.581561 36.149086 -17.105236 179.830247 -4.890658 -179.629085 -0.932813 -1.394149 15.451997 -2.288906 -4.658698 -14.773219 5.122215 4.180766 14.629965 0.963241 -1.694378 3.364484 0.000000 0.000000 0.000000 5.265599 -0.337378 16.579847 -3.972125 2.273982 -16.769906 -4.378315 2.452335 20.022942 9.124068 -2.338107 2.643090 0.000000 0.000000 0.000000 1.572622 1.895622 1.874256 0.637088 -1.752658 -14.893320 -0.289073 -2.829513 7.111409 0.000873 0.007723 0.006421 -0.670977 -0.550545 8.959372 -1.770400 2.754546 21.844538 0.000000 0.000000 0.000000 1.236104 0.164619 5.935317 -17.870637 -7.540273 2.985661 -43.477330 11.564705 24.997408 1.517655 -44.593677 2.995580 0.000000 0.000000 0.000000 -3.174902 1.211470 5.358258 26.247614 3.182251 5.569832 48.257687 -19.239820 11.338962 -2.756079 35.741594 -2.892486 0.000000 0.000000 0.000000 
-3.553209 36.152412 -17.088427 179.812120 -4.952923 -179.634221 -0.965580 -1.559164 15.417897 -2.253580 -4.636913 -14.751279 5.172213 4.138744 14.635185 0.906495 -1.653939 3.351718 0.000000 0.000000 0.000000 5.213440 -0.499853 16.516326 -3.899593 2.269361 -16.840426 -4.387296 2.395433 20.034092 9.071986 -2.223441 2.808210 0.000000 0.000000 0.000000 1.541387 1.812474 1.788109 0.576066 -1.647244 -14.929586 -0.232607 -2.824140 7.146428 0.046007 0.015887 -0.011866 -0.711247 -0.490175 9.080751 -1.799661 2.588006 22.100812 0.000000 0.000000 0.000000 1.208607 0.172007 6.031507 -17.962407 -7.822325 3.096182 -43.352034 11.268741 26.098341 1.513287 -45.690014 3.111469 0.000000 0.000000 0.000000 -3.169497 1.198212 5.459703 26.134966 3.159220 5.448503 48.102717 -19.212000 11.398530 -2.756550 35.830383 -3.005499 0.000000 0.000000 0.000000 
-3.523468 36.155334 -17.064671 179.841094 -5.037609 -179.610589 -0.964412 -1.724987 15.327986 -2.212675 -4.514706 -14.746696 5.244533 4.109083 14.717162 0.787992 -1.596435 3.345983 0.000000 0.000000 0.000000 5.178198 -0.672693 16.398628 -3.808143 2.231189 -16.858922 -4.410696 2.290643 20.007357 8.979199 -1.952297 3.028020 0.000000 0.000000 0.000000 1.565241 1.579949 1.670056 0.523733 -1.483466 -14.952155 -0.222858 -2.744915 7.220615 0.031624 0.064860 0.037766 -0.658614 -0.482087 9.146796 -1.745877 2.379189 22.382248 0.000000 0.000000 0.000000 1.241045 0.150612 6.037082 -18.003048 -8.065805 3.062956 -43.108636 11.000751 26.590239 1.369522 -46.416876 3.307021 0.000000 0.000000 0.000000 -3.111641 1.274871 5.464246 26.033898 3.115666 5.428709 47.884394 -19.141171 11.334072 -2.674145 35.762468 -2.997574 0.000000 0.000000 0.000000 
